<svg width="24" height="24" viewBox="0 0 24 24" fill="none" xmlns="http://www.w3.org/2000/svg">
<path d="M19 24H5C2.13043 24 0 21.8696 0 19V5C0 2.13043 2.13043 0 5 0H19C21.8696 0 24 2.13043 24 5V19C24 21.8696 21.8696 24 19 24Z" fill="url(#paint0_radial_1_84)"/>
<path d="M12 5.00003C14.4353 5.00003 15.0471 4.94709 16 5.00003C16.9 5.05297 16.6824 4.89415 17 5.00003C17.4236 5.15885 17.6824 5.68238 18 6.00003C18.3177 6.31768 18.8412 6.5765 19 7.00003C19.1059 7.31768 18.9471 7.10003 19 8.00003C19 8.90003 19 9.56474 19 12C19 14.4353 19.053 15.0471 19 16C18.9471 16.9 19.1059 16.6824 19 17C18.8412 17.4236 18.3177 17.6824 18 18C17.6824 18.3177 17.4236 18.8412 17 19C16.6824 19.1059 16.9 18.9471 16 19C15.1 19 14.4353 19 12 19C9.56474 19 8.95297 19.053 8.00003 19C7.10003 18.9471 7.31768 19.1059 7.00003 19C6.5765 18.8412 6.31768 18.3177 6.00003 18C5.68238 17.6824 5.15885 17.4236 5.00003 17C4.89415 16.6824 5.05297 16.9 5.00003 16C5.00003 15.1 5.00003 14.4353 5.00003 12C5.00003 9.56474 4.94709 8.95297 5.00003 8.00003C5.05297 7.10003 4.89415 7.31768 5.00003 7.00003C5.15885 6.5765 5.68238 6.31768 6.00003 6.00003C6.31768 5.68238 6.5765 5.15885 7.00003 5.00003C7.31768 4.89415 7.10003 5.05297 8.00003 5.00003C8.90003 5.00003 9.56474 5.00003 12 5.00003ZM12 3.00003C9.56474 3.00003 8.95297 2.94709 8.00003 3.00003C7.04709 3.05297 6.58238 2.78827 6.00003 3.00003C5.41768 3.21179 5.4765 4.47062 5.00003 5.00003C4.52356 5.52944 3.26474 5.41768 3.00003 6.00003C2.78827 6.58238 3.05297 7.04709 3.00003 8.00003C2.94709 8.95297 3.00003 9.56474 3.00003 12C3.00003 14.4353 2.94709 15.0471 3.00003 16C3.05297 16.953 2.78827 17.4177 3.00003 18C3.21179 18.5824 4.47062 18.5236 5.00003 19C5.4765 19.4765 5.41768 20.7353 6.00003 21C6.58238 21.2118 7.04709 20.9471 8.00003 21C8.95297 21.053 9.56474 21 12 21C14.4353 21 15.0471 21.053 16 21C16.953 20.9471 17.4177 21.2118 18 21C18.5824 20.7883 18.5236 19.5294 19 19C19.4765 18.5236 20.7353 18.5824 21 18C21.2118 17.4177 20.9471 16.953 21 16C21.053 15.0471 21 14.4353 21 12C21 9.56474 21.053 8.95297 21 8.00003C20.9471 7.04709 21.2118 6.58238 21 6.00003C20.7883 5.41768 19.5294 5.4765 19 5.00003C18.4706 4.52356 18.5824 3.26474 18 3.00003C17.4177 2.78827 16.953 3.05297 16 3.00003C15.0471 2.94709 14.4353 3.00003 12 3.00003Z" fill="white"/>
<path d="M12 7C9.5 7 7 9.5 7 12C7 14.5 9.5 16 12 16C14.5 16 16 14.5 16 12C16 9.5 14.5 7 12 7ZM12 15C10.35 15 9 13.65 9 12C9 10.35 10.35 9 12 9C13.65 9 15 10.35 15 12C15 13.65 13.65 15 12 15Z" fill="white"/>
<path d="M17 8C17.5523 8 18 7.55228 18 7C18 6.44772 17.5523 6 17 6C16.4477 6 16 6.44772 16 7C16 7.55228 16.4477 8 17 8Z" fill="white"/>
<defs>
<radialGradient id="paint0_radial_1_84" cx="0" cy="0" r="1" gradientUnits="userSpaceOnUse" gradientTransform="translate(4.96118 28.8499) rotate(-49.945) scale(36.3368 24.0035)">
<stop offset="0.073" stop-color="#EACC7B"/>
<stop offset="0.184" stop-color="#ECAA59"/>
<stop offset="0.307" stop-color="#EF802E"/>
<stop offset="0.358" stop-color="#EF6D3A"/>
<stop offset="0.46" stop-color="#F04B50"/>
<stop offset="0.516" stop-color="#F03E58"/>
<stop offset="0.689" stop-color="#DB359E"/>
<stop offset="0.724" stop-color="#CE37A4"/>
<stop offset="0.789" stop-color="#AC3CB4"/>
<stop offset="0.877" stop-color="#7544CF"/>
<stop offset="0.98" stop-color="#2B4FF2"/>
</radialGradient>
</defs>
</svg>
