<svg width="70" height="70" viewBox="0 0 70 70" fill="none" xmlns="http://www.w3.org/2000/svg">
<path d="M41.3984 60.4096H42.1404V58.4096V27.9189C42.1404 26.1952 40.7326 24.841 39.0495 24.841H38.7498C41.4776 23.4805 43.3636 20.6826 43.3636 17.4341C43.3636 12.8398 39.5909 9.14659 35 9.14659C30.4091 9.14659 26.6364 12.8398 26.6364 17.4341C26.6364 20.6826 28.5224 23.4805 31.2502 24.841H30.9513C29.2665 24.841 27.8604 26.196 27.8604 27.9189V58.4096C27.8604 60.1325 29.2665 61.4875 30.9513 61.4875H39.048C39.9812 61.4875 40.8281 61.0723 41.3984 60.4096ZM2 35.3174C2 17.3455 16.7523 2.73584 35 2.73584C53.2484 2.73584 68 17.3455 68 35.3174C68 53.2893 53.2484 67.8989 35 67.8989C16.7523 67.8989 2 53.2893 2 35.3174Z" stroke="#754DE8" stroke-width="4"/>
</svg>
